<svg width="9" height="16" viewBox="0 0 9 16" fill="none" xmlns="http://www.w3.org/2000/svg">
<path d="M7.95689 0.916221C8.06591 1.02784 8.12695 1.17769 8.12695 1.33372C8.12695 1.48975 8.06591 1.6396 7.95689 1.75122L1.86564 7.99997L7.95689 14.2475C8.06591 14.3591 8.12695 14.5089 8.12695 14.665C8.12695 14.821 8.06591 14.9708 7.95689 15.0825C7.90389 15.1369 7.84053 15.1802 7.77054 15.2097C7.70055 15.2392 7.62535 15.2545 7.54939 15.2545C7.47342 15.2545 7.39822 15.2392 7.32823 15.2097C7.25824 15.1802 7.19488 15.1369 7.14189 15.0825L0.664387 8.43622C0.55062 8.3195 0.486948 8.16296 0.486948 7.99997C0.486948 7.83698 0.55062 7.68044 0.664387 7.56372L7.14189 0.917471C7.19488 0.863042 7.25824 0.819781 7.32823 0.790241C7.39822 0.760702 7.47342 0.745483 7.54939 0.745483C7.62535 0.745483 7.70055 0.760702 7.77054 0.790241C7.84053 0.819781 7.90389 0.863042 7.95689 0.917471V0.916221Z" fill="#514A7E"/>
</svg>
